<?xml version="1.0" encoding="UTF-8"?>
<svg id="Layer_2" width="20" height="16" data-name="Layer 2" xmlns="http://www.w3.org/2000/svg" viewBox="0 0 20 11.74">
  <defs>
    <style>
      .cls-1 {
        fill: #c7c5c5;
      }
    </style>
  </defs>
  <g id="Layer_1-2" data-name="Layer 1">
    <path class="cls-1" d="m12.49.15c.05-.09,0-.15-.09-.15h-1.71c-.1,0-.22.07-.27.15l-4.19,7.09c-.58.96-1.4,1.18-2.18,1.08-1.35-.16-2.07-1.15-2.07-2.47s1.08-2.4,2.4-2.4h2.66c.1,0,.22-.07.27-.15l.96-1.67c.05-.08,0-.15-.09-.15h-3.8C1.96,1.48,0,3.44,0,5.85c0,1.17.46,2.42,1.28,3.25.82.81,1.91,1.11,3.07,1.13.66,0,2.46,0,3.31-1.51C8.62,7.03,12.49.15,12.49.15h0Zm6.22,2.49c-.82-.81-1.91-1.11-3.07-1.13-.66,0-2.46,0-3.31,1.51-.95,1.69-4.82,8.56-4.82,8.56-.05.09,0,.15.09.15h1.71c.1,0,.22-.07.27-.15l4.19-7.09c.58-.96,1.4-1.18,2.18-1.08,1.35.16,2.07,1.15,2.07,2.47s-1.08,2.4-2.4,2.4h-2.66c-.1,0-.22.07-.27.15l-.96,1.67c-.05.08,0,.15.09.15h3.8c2.41,0,4.38-1.96,4.38-4.38,0-1.17-.46-2.42-1.28-3.25h0Z"/>
  </g>
</svg>